<svg width="800" height="400" viewBox="0 0 800 400" xmlns="http://www.w3.org/2000/svg">
  <!-- Background -->
  <rect width="800" height="400" fill="#f8f9fa" rx="10" ry="10"/>
  
  <!-- Header -->
  <rect x="20" y="20" width="760" height="60" fill="#4f46e5" rx="5" ry="5"/>
  <text x="40" y="55" font-family="Arial" font-size="24" fill="white">RAG System</text>
  
  <!-- Sidebar -->
  <rect x="20" y="100" width="200" height="280" fill="#e2e8f0" rx="5" ry="5"/>
  <text x="40" y="130" font-family="Arial" font-size="16" fill="#1e293b">Documents</text>
  <rect x="30" y="150" width="180" height="30" fill="#cbd5e1" rx="3" ry="3"/>
  <rect x="30" y="190" width="180" height="30" fill="#cbd5e1" rx="3" ry="3"/>
  <rect x="30" y="230" width="180" height="30" fill="#cbd5e1" rx="3" ry="3"/>
  
  <!-- Main content area -->
  <rect x="240" y="100" width="540" height="280" fill="#e2e8f0" rx="5" ry="5"/>
  
  <!-- Chat interface -->
  <rect x="260" y="120" width="500" height="200" fill="white" rx="5" ry="5"/>
  
  <!-- User message -->
  <rect x="280" y="140" width="300" height="40" fill="#dbeafe" rx="10" ry="10"/>
  <text x="300" y="165" font-family="Arial" font-size="14" fill="#1e40af">Tell me about vector databases</text>
  
  <!-- AI response -->
  <rect x="280" y="200" width="460" height="100" fill="#f1f5f9" rx="10" ry="10"/>
  <text x="300" y="225" font-family="Arial" font-size="14" fill="#0f172a">Vector databases store and query high-dimensional vectors...</text>
  <text x="300" y="250" font-family="Arial" font-size="14" fill="#0f172a">They're optimized for similarity search operations...</text>
  <text x="300" y="275" font-family="Arial" font-size="14" fill="#0f172a">[Citation: Document 1, Page 3]</text>
  
  <!-- Input area -->
  <rect x="260" y="340" width="500" height="40" fill="white" rx="5" ry="5" stroke="#cbd5e1" stroke-width="1"/>
  <text x="280" y="365" font-family="Arial" font-size="14" fill="#94a3b8">Ask a question...</text>
  <circle cx="730" cy="360" r="15" fill="#4f46e5"/>
  <text x="730" y="365" font-family="Arial" font-size="14" fill="white" text-anchor="middle">→</text>
</svg> 